<svg id="Layer_1" data-name="Layer 1" xmlns="http://www.w3.org/2000/svg" viewBox="0 0 1920 1080"><defs><style>.cls-1{fill:#fff;stroke:#1f9aa0;stroke-width:9px;}.cls-1,.cls-3,.cls-4{stroke-miterlimit:10;}.cls-2{fill:#cc86ce;}.cls-3,.cls-4{fill:none;}.cls-3{stroke:#cc86ce;stroke-width:30px;}.cls-4{stroke:#a5a5a5;stroke-width:10px;}.cls-5{fill:#2791f2;}</style></defs><title>map</title><line class="cls-1" x1="289.5" y1="259.5" x2="1062.5" y2="844.5"/><line class="cls-1" x1="337.5" y1="211.5" x2="1110.5" y2="796.5"/><line class="cls-1" x1="389" y1="160" x2="1162" y2="745"/><circle class="cls-2" cx="1504" cy="421" r="161.5"/><circle class="cls-3" cx="1504" cy="421" r="211.98"/><path class="cls-4" d="M724,245S975,6,1162,157c175.52,141.73-277,219-40,347s333,214,147,363-549,202-702,36,20-129-97-177"/><polygon class="cls-5" points="351.31 412 252.69 468.93 252.69 582.8 351.31 639.74 449.92 582.8 449.92 468.93 351.31 412"/><polygon class="cls-5" points="239.31 608 140.69 664.93 140.69 778.8 239.31 835.74 337.92 778.8 337.92 664.93 239.31 608"/><polygon class="cls-5" points="464.31 608 365.69 664.93 365.69 778.8 464.31 835.74 562.92 778.8 562.92 664.93 464.31 608"/></svg>